<svg aria-hidden="true" style="position: absolute; width: 0; height: 0; overflow: hidden;" version="1.1" xmlns="http://www.w3.org/2000/svg" xmlns:xlink="http://www.w3.org/1999/xlink">
<defs>
<symbol id="icon-earth" viewBox="0 0 32 32">
<path d="M16 32c-8.836 0-16-7.164-16-16s7.164-16 16-16c8.836 0 16 7.164 16 16s-7.164 16-16 16zM28.968 14.659c0.026-0.013 0.040-0.035 0.050-0.070 0.021 0.111 0.072 0.209 0.154 0.281 0.002 0.010-0.003 0.008 0.002 0.022 0.008 0 0.014-0.006 0.021-0.006 0.084 0.068 0.188 0.114 0.305 0.114 0.18 0 0.33-0.1 0.418-0.241 0.006 0.007 0.016 0.016 0.021 0.024-0.001-0.016-0.003-0.032-0.005-0.048 0.039-0.071 0.066-0.149 0.066-0.235 0-0.276-0.225-0.5-0.5-0.5-0.176 0-0.322 0.096-0.412 0.232-0.004-0.003 0-0.015-0.011-0.011 0.013-0.038-0.022-0.135-0.077-0.239v0.518c0 0.057-0.016 0.108-0.032 0.159zM5.992 14.509c0-0.151-0.344-0.408-0.433-0.408 0-0.027-0.14-0.335-0.193-0.335 0-0.104-0.365-0.571-0.423-0.367-0.038 0.132 0.279 0.31 0.279 0.463 0.059 0 0.307 0.47 0.356 0.552 0.542 0.916-0.405 0.29-0.405-0.098-0.121-0.060-0.312-0.521-0.312-0.647-0.071-0.057-0.281-0.502-0.264-0.502 0-0.292-0.161-0.432-0.481-0.432-0.015-0.029-0.284-0.407-0.289-0.407 0-0.12-0.216-0.492-0.336-0.551 0-0.249-0.128-0.556-0.071-0.814 0-0.271-0.014-0.578-0.106-0.856-0.835 1.793-1.314 3.785-1.314 5.893 0 6.041 3.834 11.174 9.196 13.137 0.006-0.496 0.043-1.090 0.156-1.090 0-0.074 0.063-0.384 0.12-0.384 0-0.19 0.023-0.419 0-0.647-0.071-0.143 0.094-0.326 0.144-0.551 0.277-0.139 0.081-1.533 0.29-1.533 0-0.697 0.156-1.103 0.047-1.749 0.053 0-0.315-0.391-0.312-0.384-0.353 0-0.6-0.566-0.6-0.814-0.034-0.109-0.121-0.272-0.121-0.407 0.081 0-0.505-0.856-0.505-0.839-0.31-0.172 0.017-0.412 0.048-0.694-0.269-0.089 0.003-0.815 0.12-0.815 0.012-0.092 0.060-0.155 0.145-0.191 0.060 0.239 0.339-0.119 0.12-0.119 0-0.158-0.018-0.496 0-0.575 0-0.244-0.216-0.722-0.384-0.216-0.18-0.089-0.634-0.073-0.673-0.359 0.028-0.141-0.259-0.429-0.36-0.479 0.094-0.246-0.487-0.575-0.697-0.575 0-0.053-0.111-0.029-0.144-0.096-0.214 0-0.263-0.288-0.505-0.288-0.279 0-0.56-0.191-0.817-0.191-0.086-0.171-0.485-0.104-0.577-0.288-0.209 0-0.291-0.396-0.297-0.542-0.009-0.18-0.152-0.802-0.402-0.802zM26.248 6.484c-0.002 0.006 0.002 0.002-0.008 0.022 0.015 0 0.033 0.017 0.050 0.024-0.015-0.015-0.028-0.030-0.042-0.046zM26.549 6.815c0.035 0.068 0.061 0.131 0.053 0.17 0.035 0.001 0.052-0.018 0.080-0.025-0.043-0.049-0.090-0.095-0.133-0.145zM27.418 11.371c0.016-0.432-0.36-0.36-0.479-0.6-0.124 0-0.169-0.096-0.337-0.096-0.109-0.037-0.195-0.011-0.258 0.078-0.257 0.098-0.102-0.125-0.295-0.125 0.009-0.247-0.089-0.315-0.361-0.288-0.156 0.352-0.396 0.563-0.36 0.959 0.115 0.026 0.095 0.052 0.072 0.167 0.153 0.008 1.081-0.048 1.081-0.144 0.032 0 0.193 0.331 0.193 0.048 0.129 0 0.197 0.303 0.505 0.215 0 0.062 0.514-0.214 0.239-0.214zM27.467 16.474c0.018-0.088-0.044-0.127-0.096-0.216 0.137 0-0.433-1.057-0.433-1.222-0.087-0.043-0.198-0.345-0.218-0.455-0.117-0.078-0.238-0.334-0.288-0.479-0.119-0.079-0.409-0.433-0.456-0.599 0.172 0.019 0.432 0.054 0.432-0.168-0.116 0-0.133-0.143-0.023-0.143-0.036-0.147 0.078-0.253 0.103-0.368 0.030-0.139 0.089-0.353 0.089-0.519-0.165 0-0.205 0.028-0.336 0.072 0 0.097-0.293-0.024-0.336-0.024-0.063-0.126-0.52 0.164-0.648-0.096-0.207-0.187-0.151-0.331-0.218-0.595-0.034-0.134-0.217-0.142-0.328-0.164-0.313-0.061-0.087 0.373-0.104 0.472 0.192 0-0.121 0.238-0.121 0.359-0.324-0.070-0.216-0.431-0.407-0.527-0.057-0.096-0.012-0.168-0.145-0.168 0-0.128 0.068-0.36-0.072-0.407 0-0.062-0.272-0.087-0.312-0.168-0.172 0-0.572-0.65-0.695-0.431-0.077 0.14 0.065 0.174 0.094 0.288 0.249-0.049 0.225 0.41 0.529 0.359 0 0.064 0.008 0.129 0.023 0.192 0.225-0.053 0.199 0.167 0.312 0.167-0.082 0.109-0.342-0.174-0.271 0.064 0.041 0.138 0.018 0.256-0.161 0.391 0-0.149-0.012-0.551-0.168-0.551-0.106-0.212-0.421-0.161-0.554-0.359-0.108 0-0.15-0.336-0.336-0.359-0.035 0.049-0.166 0.096-0.217 0.096-0.101 0.203-0.672 0.021-0.672 0.048-0.009 0.002-0.32 0.762-0.338 0.862-0.035 0.215-0.208 0.219-0.26 0.423-0.026 0.102-0.653 0.054-0.653 0.129-0.271-0.090-0.505-0.28-0.505-0.575-0.022 0 0.051-0.753 0.097-0.863 0.055 0.015 0.066 0.034 0.097 0.096 0.166-0.062 0.553 0.041 0.553-0.144 0.161 0.004 0.209 0.068 0.144 0.192 0.15 0.028 0.409 0.066 0.409-0.144-0.088 0-0.097-0.008-0.097-0.096 0.288-0.299-0.216-0.569-0.216-0.718-0.102-0.034-0.31-0.255-0.162-0.172 0.125 0.069 0.582 0.212 0.402-0.092 0.012-0.004 0.020-0.012 0.023-0.023 0.051 0.036 0.266 0.257 0.266 0.048 0.059 0 0.287-0.144 0.096-0.144 0.018-0.108 0.014-0.198 0.023-0.264 0.305 0.164 0.135-0.112 0.289-0.215 0 0.199 0.164-0.096 0.264-0.096 0.119-0.177 0.391-0.040 0.457-0.24-0.147-0.048-0.12-0.416-0.12-0.55 0.177 0.029 0.374-0.239 0.401-0.055 0.010 0.071 0.019 0.267 0.055 0.294 0.263 0.138 0.193-0.079 0.193-0.215-0.088 0-0.205-0.308-0.217-0.456-0.072 0.010-0.188 0.040-0.217 0.095-0.262 0-0.44-0.095-0.648-0.095-0.016-0.032-0.266-0.312-0.24-0.312-0.146-0.251 0.146-0.178 0.192-0.19 0-0.238 0.991-0.196 1.034-0.576-0.326 0 0.336-0.552 0.336-0.55 0.221-0.189 0.338-0.352 0.613-0.373 0.116-0.008 1.406-0.364 1.406-0.203 0.052 0.002 0.224 0.004 0.402 0.010-2.497-2.322-5.834-3.752-9.513-3.752-3.563 0-6.806 1.342-9.277 3.535 0.022 0.050 0.039 0.098 0.038 0.132 0.131-0.009 0.319-0.093 0.361 0.073-0.065-0.001-0.13-0.009-0.192-0.025 0.046 0.371-0.162 0.144-0.336 0.144 0-0.009-0.077-0.040-0.159-0.062-0.053 0.050-0.109 0.097-0.162 0.147 0.006 0.016-0.003 0.017 0.007 0.035 0.056 0 0.027 0.087 0.187 0.14 0.185 0.063 0.388 0.098 0.583 0.129 0.158 0.025 0.249-0.029 0.384-0.029 0-0.020 0.33-0.167 0.097-0.167 0.032-0.132-0.027-0.165-0.169-0.167 0.012-0.14 0.345-0.048 0.481-0.048 0.104-0.175 0.003-0.154 0.095-0.313 0.11-0.195 0.241-0.026 0.313-0.213 0.109 0.040 0.206 0.099 0.241 0.237 0.087 0.072 0.529 0.724 0.529 0.263 0.158 0.053 0.237 0.349 0.24 0.504 0.287-0.042 0.312-0.257 0.312-0.48 0.066 0-0.024-0.107-0.024-0.144 0.107-0.039 0.241 0.102 0.241-0.047 0.046 0 0.048 0.046 0.048 0.096 0.149 0.029 0.245-0.017 0.336 0.015 0.063 0.022 0.031 0.349 0.002 0.464-0.036 0.146-0.315 0.148-0.315 0.216-0.316 0.236 0.373 0.359 0.481 0.503-0.065 0-0.312-0.032-0.312-0.047-0.156 0-0.534 0.165-0.673 0.047 0.194 0 0.259-0.233 0.289-0.455-0.179-0.067-0.39 0.043-0.44 0.221-0.084 0.294-0.279-0.012-0.377 0.186-0.038 0.012-0.385 0.173-0.385 0.119-0.39 0.055-0.288 0.386-0.288 0.743 0.155 0.093 0.47 0.358 0.456 0.503 0.35 0.062 0.478 0.099 0.793 0.144 0.026 0.051 0.13 0.099 0.193 0.119 0 0.206 0.187 0.169 0.36 0.169 0-0.263 0.306 0.219 0.336 0.311-0.042 0 0.072 0.269 0.096 0.36-0.048-0.017-0.063 0-0.048 0.048 0.152 0.056 0.393 0.040 0.433-0.12-0.146 0-0.097-0.167-0.097-0.264-0.15-0.1-0.127-0.293 0.024-0.335 0 0.136 0.495-0.085 0.216-0.191 0.068-0.153 0.114-0.388 0.003-0.521-0.071-0.084-0.16 0-0.195-0.126 0.189-0.047 0.050-0.407 0.048-0.575 0.060-0.023 0.216 0.038 0.216 0 0.185 0 0.493 0.234 0.601-0.049 0.309 0.141 0.063 0.275 0.385 0.168 0 0.076 0.363 0.431 0.409 0.431 0 0.017-0.009 0.12 0.071 0.12 0 0.077-0.048-0.044-0.048 0.095 0.045 0.005 0.289 0.049 0.289-0.047 0.155 0 0.264-0.19 0.264-0.335 0.097-0.063 0.267 0.527 0.384 0.527 0.086 0.134 0.361 0.329 0.361 0.455 0.058 0.059 0.119 0.043 0.119 0.216 0.073 0 0.217-0.287 0.217-0.024 0.068 0 0.266 0.146 0.289 0.263-0.173 0-0.009 0.168-0.098 0.168 0 0.166-0.371 0.034-0.455 0.024-0.115 0.515-0.809 0.145-1.229 0.278-0.221 0.070-0.648 0.557-0.671 0.8 0.268 0.003 0.386-0.232 0.625-0.312 0.195 0 0.233-0.118 0.409-0.167 0 0.049 0.048 0.023 0.048 0.072-0.342 0-0.134 0.221-0.034 0.382 0.062 0.1 0.133 0.148 0.212 0.179-0.033 0.058-0.060 0.116-0.081 0.181 0 0.001-0.001 0-0.001 0.001-0.065 0.022-0.192 0.069-0.217 0.12-0.387 0.043-0.196 0.017-0.17-0.076 0.014 0.033 0.153 0.003 0.147 0.004-0.023-0.116-0.058-0.1-0.024-0.167-0.21 0-0.312 0.096-0.481 0.096-0.028 0.057-0.175 0.192-0.24 0.192-0.049 0.148-0.16 0.417-0.289 0.503 0-0.039-0.342 0.215-0.312 0.215-0.076 0.123-0.159 0.119-0.193 0.311-0.023 0.012-0.12 0.333-0.12 0.383-0.149 0.099-0.204 0.503-0.457 0.503-0.155 0.308-0.433 0.267-0.433 0.671 0.094 0.096 0.13 0.521 0.159 0.657 0.036 0.169 0.092 0.345-0.134 0.349-0.016-0.025-0.174-0.264-0.145-0.264 0-0.099-0.121-0.416-0.192-0.515-0.095-0.133-0.271 0.021-0.409-0.037-0.059-0.118-0.458-0.144-0.6-0.144 0.023 0.089 0.088 0.117 0.096 0.216-0.118 0.048-0.186 0.102-0.308 0.085-0.209-0.029-0.184-0.192-0.414-0.169-0.368 0.037-0.625 0.342-0.625 0.707-0.041 0-0.041 0.719 0 0.719 0 0.203 0.168 0.35 0.168 0.503 0.163 0 0.346 0.359 0.505 0.359 0.018 0.127-0.080 0.147 0.192 0.145 0-0.014 0.148-0.093 0.168-0.192-0.188-0.046-0.001-0.288 0.12-0.335 0 0.171 0.24-0.057 0.24-0.072 0.027-0.011 0.265-0.096 0.265-0.096 0-0.194 0.181 0.019 0.048 0.096-0.13 0-0.12 0.216-0.192 0.216-0.031 0.154-0.092 0.288-0.128 0.438-0.046 0.185 0.104 0.204 0.056 0.377 0.191 0.036 0.384 0.001 0.577 0 0.001-0.034-0.006-0.067-0.024-0.096 0.279 0 0.024 0.527 0.193 0.527 0 0.199 0.096 0.354 0.096 0.479 0.13 0.086 0.208 0.201 0.168 0.359 0.16 0.021 0.504 0.062 0.504-0.144 0.243 0 0.26 0.165 0.242 0.335 0.484 0 0.181-0.479 0.383-0.479 0.019-0.079 0.052-0.093 0.099-0.041 0.099 0.053 0.174-0.099 0.253-0.147 0.025-0.017 0.113-0.068 0.129-0.068 0.068 0.041 0.074 0.029 0.104 0.075 0.132-0.001 0.265-0.075 0.378-0.153 0.173 0.021 0.117 0.393 0.441 0.416 0.13 0.009 0.431 0.045 0.543-0.032 0.028-0.019 0.131 0.065 0.142 0.101 0.108 0 0.1 0.094 0.146 0.092 0.011 0.021 0.027 0.029 0.049 0.023 0.014 0.041 0.1 0.053 0.145 0.167 0 0.104 0.216 0.122 0.216 0.191 0.155 0.078-0.053 0.099 0.185 0.171 0.131 0.041 0.252 0.107 0.393 0.117 0.045-0.171 0.191 0.023 0.265 0.023 0.038 0.078 0.058 0.019 0.095 0.096 0.223 0.186 0.076 0.114 0.168 0.312 0.107 0.070 0.141 0.314 0.17 0.455-0.086 0-0.025 0.329-0.025 0.36-0.104 0 0.266 0.197 0.266-0.049 0.152 0.025 0.252 0.191 0.36 0.191-0.063 0.145 0.168 0.254 0.168 0.025 0.228 0.023 0.167 0.363 0.145 0.479 0.169 0 0.218-0.094 0.362-0.112 0.156-0.099 0.33-0.171 0.527-0.171 0.553 0 1 0.447 1 1 0 0.498-0.371 0.893-0.848 0.969-0.064 0.073-0.122 0.136-0.126 0.136 0 0.048-0.011 0.526-0.025 0.526 0 0.096-0.073 0.623-0.144 0.623 0 0.271-0.177 0.32-0.24 0.575-0.146 0.108-0.541 0.288-0.602 0.407-0.113 0-0.197 0.096-0.312 0.096-0.016 0.033-0.261 0.264-0.217 0.264-0.018 0.17 0.013 0.57-0.079 0.682-0.062 0.074-0.151 0.066-0.112 0.182-0.135 0 0.008 0.096-0.205 0.096-0.134 0-0.373 0.191-0.38 0.353-0.009 0.198-0.062 0.341-0.232 0.462 0 0.068-0.312 0.088-0.312 0.264 0.029 0 0 0.326 0 0.359-0.093-0.003-0.321 0.090-0.36 0.167-0.314 0-0.276 0.032-0.48 0.168 0 0.042-0.029 0.191-0.072 0.191 0 0.243-0.173 0.022-0.313 0.145 0.055 0 0.125 0.239 0.096 0.239 0 0.211-0.131 0.229-0.264 0.384-0.063 0.042-0.123 0.216-0.168 0.216 0 0.142-0.071 0.271-0.071 0.407 0.030 0 0.002 0.061 0.023 0.118 0.067-0.019 0.069-0.095 0.096-0.095 0-0.12 0.191 0.071 0.072 0.071-0.099 0.15-0.206 0.153-0.265 0.36-0.060 0-0.112 0.058-0.156 0.126 1.178 0.321 2.414 0.509 3.696 0.509 4.924 0 9.246-2.548 11.742-6.393 0.015-0.354 0.070-0.692 0.109-0.809 0.098 0.072 0.171 0.207 0.24 0-0.173-0.034-0.131-0.094-0.072-0.239 0.066 0.040 0.199 0.089 0.307 0.082 0.033-0.062 0.059-0.128 0.092-0.19-0.098-0.076 0.037-0.273 0.084-0.177 0.025-0.048 0.047-0.098 0.070-0.146-0.011-0.003-0.008 0.004-0.024-0.001 0-0.087 0.016-0.076 0.073-0.12 0.001 0.009 0 0.009 0.002 0.017 0.873-1.827 1.377-3.864 1.377-6.024 0-0.071-0.010-0.139-0.011-0.21-0.026 0.098-0.075 0.204-0.144 0.228 0 0.063-0.715 0.374-0.672 0.503-0.126 0-0.568 0.126-0.649 0.287-0.089 0-0.448 0.127-0.481 0.192-0.446 0.001-0.361-0.526-0.576-0.526zM29.5 11h-0.531c-0.004-0.005-0.008-0.006-0.012-0.013-0.027 0-0.14-0.254-0.096-0.312 0.043 0 0.063 0.004 0.086 0.006-0.045-0.11-0.094-0.218-0.143-0.327-0.108 0.074-0.203 0.168-0.352 0.177 0 0.041-0.213 0.455 0 0.455 0 0.008 0.004 0.014 0.006 0.021-0.255 0.024-0.458 0.232-0.458 0.493 0 0.276 0.224 0.5 0.5 0.5h0.197c0.012 0.091 0.061 0.17 0.236 0.209 0.055 0.231 0.467 0.313 0.529 0.071-0.174 0-0.117-0.167-0.102-0.28h0.14c0.275 0 0.5-0.224 0.5-0.5s-0.225-0.5-0.5-0.5zM28.043 17.502c0.035 0.002 0.266-0.004 0.266-0.045 0.209 0 0.492-0.029 0.697-0.097 0 0.31-0.261 0.483-0.217 0.791-0.173 0-0.097 0.178-0.097 0.239-0.112 0.069-0.129 0.195-0.264 0.264 0 0.139-0.312 0.369-0.404 0.488-0.104 0.133-0.417 0.364-0.458 0.533 0.011-0.040-0.572 0.607-0.436 0.607 0 0.121-0.164 1.078 0.048 1.078 0 0.084 0.181 0.887 0.071 0.887 0 0.258-0.168 0.416-0.168 0.622-0.082 0.056-0.199 0.087-0.24 0.169-0.147 0-0.218 0.312-0.288 0.312 0 0.333-0.097 0.58-0.097 0.958 0.027 0-0.192 0.539-0.192 0.574-0.177 0.119-0.625 0.546-0.625 0.768 0 0-0.312 0.438-0.36 0.503-0.094 0-0.818 0.136-0.818 0.192-0.154 0-0.552 0.121-0.648-0.024 0-0.152-0.083-0.345-0.096-0.552-0.074 0-0.086-0.311-0.168-0.311 0-0.066-0.459-0.983-0.385-0.983 0-0.095-0.082-0.407-0.096-0.407 0-0.33-0.241-0.605-0.241-0.91-0.071 0-0.218-0.67-0.144-0.67 0-0.352 0.123-0.582 0.174-0.973 0.057-0.429-0.027-0.69-0.102-0.993-0.041 0-0.179-0.229-0.193-0.287-0.193-0.128-0.264-0.382-0.264-0.622 0.126-0.144 0.176-0.685 0.145-0.863-0.243-0.115-0.34-0.072-0.602-0.072-0.155-0.311-1.196-0.119-1.491-0.119 0 0.17-0.725-0.033-0.793-0.168-0.177 0-0.528-0.376-0.528-0.551-0.194-0.129-0.504-0.771-0.504-0.982-0.168-0.084-0.117-0.408-0.025-0.408 0.023-0.090-0.059-0.374-0.098-0.509-0.029-0.101 0.098-0.21 0.098-0.33 0-0.334 0.008-0.488 0.195-0.845 0.059-0.112 0.134-0.217 0.189-0.357 0.1-0.251 0.13-0.012 0.265-0.236 0.129-0.064 0.204-0.278 0.337-0.383 0.058-0.077 0.060-0.109 0-0.168 0.026 0 0.168-0.369 0.168-0.454 0.188-0.261 0.055-0.142 0.24-0.12 0.068-0.074 0.181-0.264 0.288-0.264 0.047-0.093 0.165-0.144 0.265-0.144 0 0.144 0.392-0.047 0.433-0.047 0.067-0.135 0.499-0.288 0.601-0.288 0-0.164 0.852 0.046 0.986 0.024 0-0.024 0-0.048 0-0.072 0.182 0.043 0.514 0.773 0.48 0.935 0.14 0 0.27-0.023 0.361 0 0 0.155 0.292 0.193 0.425 0.2 0.185 0.009 0.728-0.019 0.728-0.272 0.143 0 0.27 0.1 0.242 0.263 0.162 0.018 1.125 0.037 1.057 0.239 0.141 0 0.177 0.241 0.312 0.241-0.027 0.166 0.168 0.599 0.312 0.599 0 0.144 0.090 0.409 0.217 0.502 0.068 0.206 0.293 0.64 0.504 0.767-0.090 0.17 0.137 0.31 0.193 0.479-0.013 0 0.049 0.251 0.119 0.288 0 0.17 0.358 0.863 0.554 0.863 0.013 0.084-0.184 0.122 0.072 0.141zM22.852 12.137c0.037-0.143 0.121-0.032 0.199-0.006 0.185 0.060 0.121-0.003 0.258-0.065 0 0.39-0.224 0.094-0.457 0.071zM22.346 11.418c0.098 0 0.125 0.44-0.144 0.359 0-0.109-0.069-0.311 0.073-0.311 0.041 0.17 0.071 0.101 0.071-0.048zM22.227 11.131c0.111 0.048 0.16 0.032 0.144-0.048 0.146 0.048-0.019 0.152-0.048 0.264-0.075-0.074-0.052-0.1-0.096-0.216zM19.654 8.998c-0.236-0.061 0.243-0.131 0.264-0.191-0.080 0-0.135-0.083-0.104-0.153 0.036-0.083 0.095 0.099 0.177 0.058 0.097-0.010 0.288-0.155 0.19 0.125-0.1 0.284-0.191 0.492-0.551 0.497-0.129-0.13-0.005-0.198 0.024-0.336zM20.544 8.016c0.194 0 0.024 0.144-0.019 0.144 0.033 0.013-0.006 0.129-0.006 0.167 0.18-0.002 0.183-0.112 0.312-0.144-0.027 0.161-0.207 0.192-0.031 0.33 0.093 0.073 0.188 0.159 0.151 0.27 0.229 0 0.263 0.22 0.216 0.479 0.127 0 0.121 0.006 0.121-0.121 0.123 0.034 0.114 0.145 0 0.145-0.114 0.225-0.413 0.215-0.625 0.215-0.002-0.174-0.035-0.185-0.196-0.136-0.22 0.067-0.048-0.175-0.044-0.295 0.024 0 0.499 0.022 0.216-0.072-0.015-0.258-0.073-0.335-0.312-0.335 0-0.176-0.062-0.163-0.091-0.356-0.041-0.285 0.223 0.020 0.308-0.291zM20.471 9.573c0 0.059-0.12 0.106-0.144 0.023 0.023 0.008 0.032 0 0.023-0.023 0.041 0 0.082 0 0.121 0zM18.5 7h-1c-0.276 0-0.5-0.224-0.5-0.5s0.224-0.5 0.5-0.5h1c0.276 0 0.5 0.224 0.5 0.5s-0.224 0.5-0.5 0.5zM12.674 15.85c0.056 0 0.121 0.022 0.121 0.072-0.073 0-0.167 0.069-0.121-0.072zM11.762 15.899c-0.040 0.076-0.364 0.063-0.409-0.025 0.12 0 0.213 0.049 0.336 0 0-0.066-0.055-0.119-0.096-0.191 0.131 0 0.278 0.1 0.457 0.096 0-0.111-0.049 0.024 0-0.12 0.075 0.019 0.256 0.191 0.264 0.263-0.263-0.028-0.275-0.023-0.552-0.023zM10.704 15.324c-0.123 0-0.36-0.107-0.433-0.216 0.119 0.005 0.237 0.054 0.312-0.072 0.305 0.031 0.332 0.241 0.577 0.241 0.046 0.081 0.308 0.267 0.055 0.291-0.191 0.018-0.431-0.086-0.511-0.244zM10.896 15.995c-0.089 0-0.236 0.039-0.168-0.145 0.118 0.016 0.174 0.065 0.168 0.145zM11.064 15.971c-0.048 0.008-0.096 0.016-0.144 0.024 0.014-0.111 0.119-0.235 0.144-0.024zM11.953 17.024c-0.019 0.067-0.016 0.071-0.095 0.071 0.008-0.031 0.015-0.062 0.023-0.095 0.025 0.008 0.048 0.016 0.072 0.024zM9.79 15.036c0.023 0.008 0.048 0.017 0.072 0.024 0.031 0.119 0.096 0.060 0.168 0.024 0 0.139-0.322 0.179-0.24-0.048z"></path>
</symbol>
<symbol id="icon-compass" viewBox="0 0 20 20">
<path d="M5.454 14.548c0 0 4.568-0.627 6.518-2.576s2.576-6.518 2.576-6.518-4.569 0.627-6.518 2.576-2.576 6.518-2.576 6.518zM9.017 9.015c0.818-0.818 2.385-1.4 3.729-1.762-0.361 1.342-0.945 2.92-1.76 3.732-0.543 0.545-1.426 0.545-1.969 0-0.545-0.543-0.545-1.425 0-1.97zM10.001 0.4c-5.303 0-9.601 4.298-9.601 9.6 0 5.303 4.298 9.601 9.601 9.601 5.301 0 9.6-4.298 9.6-9.601s-4.299-9.6-9.6-9.6zM10 17.6c-4.197 0-7.6-3.402-7.6-7.6 0-4.197 3.402-7.6 7.6-7.6 4.197 0 7.601 3.402 7.601 7.6 0 4.197-3.404 7.6-7.601 7.6z"></path>
</symbol>
<symbol id="icon-emoji-happy" viewBox="0 0 20 20">
<path d="M10 0.4c-5.302 0-9.6 4.298-9.6 9.6s4.298 9.6 9.6 9.6c5.301 0 9.6-4.298 9.6-9.601 0-5.301-4.299-9.599-9.6-9.599zM10 17.599c-4.197 0-7.6-3.402-7.6-7.6s3.402-7.599 7.6-7.599c4.197 0 7.601 3.402 7.601 7.6s-3.404 7.599-7.601 7.599zM7.501 9.75c0.828 0 1.499-0.783 1.499-1.75s-0.672-1.75-1.5-1.75-1.5 0.783-1.5 1.75 0.672 1.75 1.501 1.75zM12.5 9.75c0.829 0 1.5-0.783 1.5-1.75s-0.672-1.75-1.5-1.75-1.5 0.784-1.5 1.75 0.672 1.75 1.5 1.75zM14.341 11.336c-0.363-0.186-0.815-0.043-1.008 0.32-0.034 0.066-0.869 1.593-3.332 1.593-2.451 0-3.291-1.513-3.333-1.592-0.188-0.365-0.632-0.514-1.004-0.329-0.37 0.186-0.52 0.636-0.335 1.007 0.050 0.099 1.248 2.414 4.672 2.414 3.425 0 4.621-2.316 4.67-2.415 0.184-0.367 0.036-0.81-0.33-0.998z"></path>
</symbol>
<symbol id="icon-globe" viewBox="0 0 20 20">
<path d="M10 0.4c-5.295 0-9.601 4.307-9.601 9.6s4.306 9.6 9.601 9.6c5.293 0 9.6-4.307 9.6-9.6s-4.307-9.6-9.6-9.6zM18.188 10c0 1.873-0.636 3.6-1.696 4.98-0.3-0.234-0.619-0.867-0.319-1.523 0.303-0.66 0.382-2.188 0.312-2.783-0.066-0.594-0.375-2.025-1.214-2.039-0.838-0.012-1.413-0.289-1.911-1.283-1.033-2.068 1.939-2.465 0.906-3.609-0.289-0.322-1.783 1.322-2.002-0.869-0.014-0.157 0.135-0.392 0.336-0.636 3.244 1.090 5.588 4.157 5.588 7.762zM8.875 1.893c-0.196 0.382-0.713 0.537-1.027 0.824-0.684 0.619-0.978 0.533-1.346 1.127-0.371 0.594-1.567 1.449-1.567 1.879s0.604 0.936 0.906 0.838c0.302-0.1 1.099-0.094 1.567 0.070 0.469 0.166 3.914 0.332 2.816 3.244-0.348 0.926-1.873 0.77-2.279 2.303-0.061 0.225-0.272 1.186-0.285 1.5-0.025 0.486 0.344 2.318-0.125 2.318-0.471 0-1.738-1.639-1.738-1.936s-0.328-1.338-0.328-2.23c0-0.891-1.518-0.877-1.518-2.062 0-1.068 0.823-1.6 0.638-2.113-0.181-0.51-1.627-0.527-2.23-0.59 1.053-2.731 3.53-4.758 6.516-5.172zM7.424 17.77c0.492-0.26 0.542-0.596 0.988-0.613 0.51-0.023 0.925-0.199 1.5-0.326 0.51-0.111 1.423-0.629 2.226-0.695 0.678-0.055 2.015 0.035 2.375 0.689-1.295 0.861-2.848 1.363-4.514 1.363-0.899 0-1.765-0.149-2.575-0.418z"></path>
</symbol>
<symbol id="icon-heart-outlined" viewBox="0 0 20 20">
<path d="M17.19 4.156c-1.672-1.535-4.383-1.535-6.055 0l-1.135 1.041-1.136-1.041c-1.672-1.535-4.382-1.535-6.054 0-1.881 1.726-1.881 4.519 0 6.245l7.19 6.599 7.19-6.599c1.88-1.726 1.88-4.52 0-6.245zM16.124 9.375l-6.124 5.715-6.125-5.715c-0.617-0.567-0.856-1.307-0.856-2.094s0.138-1.433 0.756-1.999c0.545-0.501 1.278-0.777 2.063-0.777s1.517 0.476 2.062 0.978l2.1 1.825 2.099-1.826c0.546-0.502 1.278-0.978 2.063-0.978s1.518 0.276 2.063 0.777c0.618 0.566 0.755 1.212 0.755 1.999s-0.238 1.528-0.856 2.095z"></path>
</symbol>
<symbol id="icon-heart" viewBox="0 0 20 20">
<path d="M17.19 4.155c-1.672-1.534-4.383-1.534-6.055 0l-1.135 1.042-1.136-1.042c-1.672-1.534-4.382-1.534-6.054 0-1.881 1.727-1.881 4.52 0 6.246l7.19 6.599 7.19-6.599c1.88-1.726 1.88-4.52 0-6.246z"></path>
</symbol>
<symbol id="icon-location-pin" viewBox="0 0 20 20">
<path d="M10 2.009c-2.762 0-5 2.229-5 4.99 0 4.774 5 11 5 11s5-6.227 5-11c0-2.76-2.238-4.99-5-4.99zM10 9.76c-1.492 0-2.7-1.209-2.7-2.7s1.208-2.7 2.7-2.7c1.49 0 2.699 1.209 2.699 2.7s-1.209 2.7-2.699 2.7z"></path>
</symbol>
<symbol id="icon-magnifying-glass" viewBox="0 0 20 20">
<path d="M17.545 15.467l-3.779-3.779c0.57-0.935 0.898-2.035 0.898-3.21 0-3.417-2.961-6.377-6.378-6.377s-6.186 2.769-6.186 6.186c0 3.416 2.961 6.377 6.377 6.377 1.137 0 2.2-0.309 3.115-0.844l3.799 3.801c0.372 0.371 0.975 0.371 1.346 0l0.943-0.943c0.371-0.371 0.236-0.84-0.135-1.211zM4.004 8.287c0-2.366 1.917-4.283 4.282-4.283s4.474 2.107 4.474 4.474c0 2.365-1.918 4.283-4.283 4.283s-4.473-2.109-4.473-4.474z"></path>
</symbol>
<symbol id="icon-map" viewBox="0 0 20 20">
<path d="M19.447 3.718l-6-3c-0.281-0.141-0.613-0.141-0.895 0l-5.63 2.815-5.606-1.869c-0.306-0.102-0.64-0.051-0.901 0.138s-0.415 0.49-0.415 0.811v13.001c0 0.379 0.214 0.725 0.553 0.894l6 3c0.141 0.070 0.294 0.106 0.447 0.106s0.307-0.035 0.447-0.106l5.63-2.814 5.606 1.869c0.305 0.1 0.64 0.049 0.901-0.139s0.415-0.49 0.415-0.81v-13.002c0.001-0.379-0.213-0.725-0.552-0.894zM8 5.231l4-2v11.763l-4 2v-11.763zM2 4l4 1.333v11.661l-4-2v-10.994zM18 16.227l-4-1.334v-11.662l4 2v10.996z"></path>
</symbol>
<symbol id="icon-network" viewBox="0 0 20 20">
<path d="M5.274 6.915c0.2 0 0.394 0.029 0.576 0.086 0.69-0.773 1.455-1.477 2.283-2.1-0.035-0.146-0.054-0.299-0.054-0.455 0-0.217 0.036-0.426 0.102-0.621-0.929-0.664-1.937-1.223-3.011-1.654-1.005 0.621-1.882 1.431-2.582 2.381 0.519 0.92 1.136 1.777 1.838 2.557 0.256-0.124 0.543-0.194 0.848-0.194zM3.316 8.872c0-0.275 0.058-0.537 0.159-0.773-0.628-0.692-1.197-1.436-1.695-2.229-0.625 1.242-0.98 2.645-0.98 4.131 0 1.719 0.474 3.328 1.295 4.705 0.294-1.654 0.851-3.219 1.62-4.652-0.25-0.328-0.399-0.739-0.399-1.182zM10.036 2.489c0.517 0 0.985 0.201 1.336 0.529 1.021-0.439 2.096-0.777 3.215-0.992-1.351-0.779-2.917-1.226-4.587-1.226-1.139 0-2.229 0.209-3.236 0.588 0.799 0.395 1.561 0.855 2.277 1.375 0.292-0.174 0.631-0.274 0.995-0.274zM12.962 11.708c0.122-0.254 0.295-0.479 0.509-0.656-0.578-1.777-1.493-3.404-2.672-4.803-0.234 0.1-0.492 0.154-0.764 0.154-0.425 0-0.816-0.137-1.137-0.365-0.71 0.539-1.367 1.143-1.964 1.803 0.188 0.299 0.297 0.652 0.297 1.031 0 0.203-0.031 0.4-0.090 0.586 1.717 1.146 3.694 1.934 5.821 2.25zM15.501 14.351c0.026 0.371 0.041 0.744 0.041 1.121 0 0.664-0.042 1.318-0.122 1.961 1.56-1.139 2.748-2.758 3.347-4.639-0.71 0.172-1.438 0.295-2.181 0.365-0.173 0.537-0.572 0.969-1.085 1.192zM12.504 13.024c-2.272-0.377-4.377-1.244-6.21-2.484-0.298 0.182-0.647 0.289-1.021 0.289-0.139 0-0.272-0.014-0.402-0.041-0.877 1.662-1.438 3.517-1.599 5.484 0.876 0.94 1.944 1.697 3.145 2.205 1.492-2.293 3.576-4.189 6.087-5.453zM16.176 3.181c-1.475 0.143-2.883 0.514-4.193 1.068 0.006 0.066 0.010 0.131 0.010 0.197 0 0.309-0.074 0.6-0.201 0.859 1.311 1.539 2.327 3.33 2.969 5.291 0.797 0.016 1.477 0.502 1.77 1.195 0.886-0.090 1.748-0.26 2.578-0.504 0.060-0.42 0.092-0.85 0.092-1.287-0.001-2.704-1.167-5.136-3.025-6.819zM13.489 14.069c-2.344 1.098-4.304 2.789-5.723 4.856 0.715 0.179 1.463 0.275 2.234 0.275 1.387 0 2.702-0.309 3.882-0.859 0.19-0.928 0.29-1.887 0.29-2.869 0-0.355-0.016-0.707-0.043-1.055-0.236-0.076-0.453-0.193-0.64-0.348z"></path>
</symbol>
<symbol id="icon-dribbble" viewBox="0 0 20 20">
<path d="M9.565 7.421c-1.358-2.414-2.811-4.383-2.917-4.528-2.191 1.036-3.826 3.055-4.337 5.487 0.206 0.004 3.482 0.043 7.254-0.959zM10.543 10.061c0.102-0.033 0.206-0.064 0.309-0.094-0.197-0.447-0.412-0.895-0.637-1.336-4.046 1.212-7.928 1.124-8.065 1.12-0.003 0.084-0.007 0.166-0.007 0.25 0 2.019 0.763 3.861 2.016 5.252l-0.005-0.006c0 0 2.15-3.814 6.389-5.186zM5.171 16.194v-0.004c-0.058-0.045-0.12-0.086-0.178-0.135 0.106 0.085 0.178 0.139 0.178 0.139zM8.118 2.372c-0.007 0.002-0.015 0.004-0.015 0.004 0.006-0.002 0.014-0.002 0.014-0.002l0.001-0.002zM15.189 4.104c-1.384-1.218-3.199-1.961-5.189-1.961-0.639 0-1.258 0.078-1.852 0.221 0.12 0.16 1.595 2.119 2.938 4.584 2.962-1.109 4.081-2.812 4.103-2.844zM10 19.2c-5.080 0-9.199-4.119-9.199-9.199-0.001-5.082 4.118-9.201 9.199-9.201s9.2 4.119 9.2 9.201c0 5.080-4.118 9.199-9.2 9.199zM11.336 11.286c-4.611 1.607-6.134 4.838-6.165 4.904 1.334 1.041 3.006 1.666 4.828 1.666 1.088 0 2.125-0.221 3.067-0.621-0.116-0.689-0.573-3.096-1.679-5.967-0.016 0.006-0.033 0.012-0.051 0.018zM11.69 8.12c0.184 0.373 0.358 0.754 0.523 1.139 0.059 0.135 0.114 0.272 0.17 0.406 2.713-0.342 5.385 0.238 5.473 0.256-0.019-1.863-0.686-3.572-1.787-4.912-0.018 0.023-1.279 1.843-4.379 3.111zM12.861 10.905c1.031 2.836 1.449 5.142 1.529 5.611 1.764-1.191 3.018-3.080 3.367-5.27-0.156-0.050-2.356-0.747-4.896-0.341z"></path>
</symbol>
<symbol id="icon-pinterest-with-circle" viewBox="0 0 20 20">
<path d="M10 0.4c-5.302 0-9.6 4.298-9.6 9.6s4.298 9.6 9.6 9.6 9.6-4.298 9.6-9.6-4.298-9.6-9.6-9.6zM10.657 12.275c-0.616-0.047-0.874-0.352-1.356-0.644-0.265 1.391-0.589 2.725-1.549 3.422-0.297-2.104 0.434-3.682 0.774-5.359-0.579-0.975 0.069-2.936 1.291-2.454 1.503 0.596-1.302 3.625 0.581 4.004 1.966 0.394 2.769-3.412 1.55-4.648-1.762-1.787-5.127-0.041-4.713 2.517 0.1 0.625 0.747 0.815 0.258 1.678-1.127-0.25-1.464-1.139-1.42-2.324 0.069-1.94 1.743-3.299 3.421-3.486 2.123-0.236 4.115 0.779 4.391 2.777 0.309 2.254-0.959 4.693-3.228 4.517z"></path>
</symbol>
<symbol id="icon-pinterest" viewBox="0 0 20 20">
<path d="M8.617 13.227c-0.526 2.754-1.167 5.394-3.068 6.773-0.586-4.162 0.861-7.287 1.534-10.605-1.147-1.93 0.138-5.812 2.555-4.855 2.975 1.176-2.576 7.172 1.15 7.922 3.891 0.781 5.479-6.75 3.066-9.199-3.485-3.538-10.146-0.083-9.326 4.982 0.199 1.238 1.478 1.613 0.511 3.322-2.231-0.494-2.897-2.254-2.811-4.6 0.138-3.84 3.449-6.527 6.771-6.9 4.201-0.471 8.144 1.543 8.689 5.494 0.613 4.461-1.896 9.293-6.389 8.945-1.218-0.095-1.728-0.699-2.682-1.279z"></path>
</symbol>
<symbol id="icon-youtube" viewBox="0 0 20 20">
<path d="M10 2.3c-9.828 0-10 0.874-10 7.7s0.172 7.7 10 7.7 10-0.874 10-7.7-0.172-7.7-10-7.7zM13.205 10.334l-4.49 2.096c-0.393 0.182-0.715-0.022-0.715-0.456v-3.948c0-0.433 0.322-0.638 0.715-0.456l4.49 2.096c0.393 0.184 0.393 0.484 0 0.668z"></path>
</symbol>
</defs>
</svg>
